<?xml version="1.0" encoding="UTF-8" standalone="no"?>
<!-- Created with Inkscape (http://www.inkscape.org/) -->

<svg
   xmlns:dc="http://purl.org/dc/elements/1.1/"
   xmlns:cc="http://creativecommons.org/ns#"
   xmlns:rdf="http://www.w3.org/1999/02/22-rdf-syntax-ns#"
   xmlns:svg="http://www.w3.org/2000/svg"
   xmlns="http://www.w3.org/2000/svg"
   version="1.1"
   width="72"
   height="175.5"
   id="svg2">
  <defs
     id="defs4" />
  <metadata
     id="metadata7">
    <rdf:RDF>
      <cc:Work
         rdf:about="">
        <dc:format>image/svg+xml</dc:format>
        <dc:type
           rdf:resource="http://purl.org/dc/dcmitype/StillImage" />
        <dc:title></dc:title>
      </cc:Work>
    </rdf:RDF>
  </metadata>
  <g
     transform="translate(0,-876.86219)"
     id="board">
    <path
       d="M 19.6875,0.1875 18,1.875 l 0,29.46875 -16.28125,0 -1.6875,1.6875 0,140.59375 1.6875,1.6875 68.5625,0 1.6875,-1.6875 0,-140.59375 -1.6875,-1.6875 -16.28125,0 0,-29.46875 -1.6875,-1.6875 -32.625,0 z M 36,9.0625 c 4.970563,0 9,4.029437 9,9 0,4.970563 -4.029437,9 -9,9 -4.970563,0 -9,-4.029437 -9,-9 0,-4.970563 4.029437,-9 9,-9 z"
       transform="translate(0,876.86219)"
       id="boardoutline"
       style="fill:#338040;fill-opacity:1;stroke:none" />
  </g>
</svg>
