<?xml version="1.0" encoding="UTF-8" standalone="no"?>
<!-- Created with Inkscape (http://www.inkscape.org/) -->

<svg
   xmlns:dc="http://purl.org/dc/elements/1.1/"
   xmlns:cc="http://creativecommons.org/ns#"
   xmlns:rdf="http://www.w3.org/1999/02/22-rdf-syntax-ns#"
   xmlns:svg="http://www.w3.org/2000/svg"
   xmlns="http://www.w3.org/2000/svg"
   version="1.1"
   width="144"
   height="175.5"
   id="svg3084">
  <defs
     id="defs3086" />
  <metadata
     id="metadata3089">
    <rdf:RDF>
      <cc:Work
         rdf:about="">
        <dc:format>image/svg+xml</dc:format>
        <dc:type
           rdf:resource="http://purl.org/dc/dcmitype/StillImage" />
        <dc:title></dc:title>
      </cc:Work>
    </rdf:RDF>
  </metadata>
  <g
     transform="translate(0,-876.86221)"
     id="board">
    <path
       d="M 22.5,0 C 20.007,0 18,2.007 18,4.5 l 0,27 -13.5,0 C 2.007,31.5 0,33.507 0,36 l 0,135 c 0,2.493 2.007,4.5 4.5,4.5 l 135,0 c 2.493,0 4.5,-2.007 4.5,-4.5 l 0,-135 c 0,-2.493 -2.007,-4.5 -4.5,-4.5 l -13.5,0 0,-27 C 126,2.007 123.993,0 121.5,0 l -27,0 C 92.007,0 90,2.007 90,4.5 l 0,27 -36,0 0,-27 C 54,2.007 51.993,0 49.5,0 l -27,0 z M 36,9 c 4.970563,0 9,4.029437 9,9 0,4.970563 -4.029437,9 -9,9 -4.970563,0 -9,-4.029437 -9,-9 0,-4.970563 4.029437,-9 9,-9 z m 72,0 c 4.97056,0 9,4.029437 9,9 0,4.970563 -4.02944,9 -9,9 -4.97056,0 -9,-4.029437 -9,-9 0,-4.970563 4.02944,-9 9,-9 z"
       transform="translate(0,876.86221)"
       id="boardoutline"
       style="fill:#338040;fill-opacity:1;stroke:none" />
  </g>
</svg>
